<svg xmlns="http://www.w3.org/2000/svg" xmlns:xlink="http://www.w3.org/1999/xlink" xmlns:lucid="lucid" width="1482" height="2241"><g transform="translate(41 920)" lucid:page-tab-id="0_0"><path d="M-500-1000h2000v2500H-500z" fill="#fff"/><path d="M240 120c22.1 0 40 17.9 40 40s-17.9 40-40 40h-80c-22.1 0-40-17.9-40-40s17.9-40 40-40z" stroke="#3a414a" stroke-width="2" fill="#fff"/><use xlink:href="#a" transform="matrix(1,0,0,1,125,125) translate(49.951171875 43.40277777777778)"/><path d="M360 106a6 6 0 0 1 6-6h148a6 6 0 0 1 6 6v108a6 6 0 0 1-6 6H366a6 6 0 0 1-6-6z" stroke="#3a414a" stroke-width="2" fill="#fff"/><use xlink:href="#b" transform="matrix(1,0,0,1,372,112) translate(18.60221354166667 42.52777777777778)"/><use xlink:href="#c" transform="matrix(1,0,0,1,372,112) translate(84.03190104166667 42.52777777777778)"/><use xlink:href="#d" transform="matrix(1,0,0,1,372,112) translate(27.66796875 69.41579861111111)"/><path d="M521.5 160h64.1" stroke="#3a414a" fill="none"/><path d="M521.5 160.47h-.5v-.94h.5z" stroke="#3a414a" stroke-width=".05" fill="#3a414a"/><path d="M600.38 160l-14.27 4.63v-9.26z" stroke="#3a414a" fill="#3a414a"/><path d="M675.2 103.6a8 8 0 0 1 9.6 0l70.4 52.8a4.5 4.5 0 0 1 0 7.2l-70.4 52.8a8 8 0 0 1-9.6 0l-70.4-52.8a4.5 4.5 0 0 1 0-7.2z" stroke="#3a414a" stroke-width="2" fill="#fff"/><use xlink:href="#e" transform="matrix(1,0,0,1,612,112) translate(22.388680555555553 57.52777777777778)"/><path d="M680.48 282.62h-.96v-12.86h.96zm0-34.37h-.96V219.5h.96z" stroke="#3a414a" stroke-width=".05" fill="#3a414a"/><path d="M680 219l.48-.03v.54h-.96v-.53z" fill="#3a414a"/><path stroke="#3a414a" stroke-width=".05" fill="#3a414a"/><path d="M680 297.38l-4.63-14.26h9.26z" fill="#3a414a"/><path d="M680 298.92l-5.3-16.28h10.6zm-3.98-15.33l3.98 12.25 3.98-12.26z" stroke="#3a414a" stroke-width=".05" fill="#3a414a"/><use xlink:href="#f" transform="matrix(1,0,0,1,664.2013888888889,248.24584351187318) translate(0 17.22222222222222)"/><path d="M600 306a6 6 0 0 1 6-6h148a6 6 0 0 1 6 6v108a6 6 0 0 1-6 6H606a6 6 0 0 1-6-6z" stroke="#3a414a" stroke-width="2" fill="#fff"/><use xlink:href="#g" transform="matrix(1,0,0,1,612,312) translate(15.987196180555557 42.52777777777778)"/><use xlink:href="#h" transform="matrix(1,0,0,1,612,312) translate(102.90125868055556 42.52777777777778)"/><use xlink:href="#i" transform="matrix(1,0,0,1,612,312) translate(42.251302083333336 69.41579861111111)"/><path d="M786.28 160.47H758.5v-.94h27.78zm36.34 0h-11.9v-.94h11.9z" stroke="#3a414a" stroke-width=".05" fill="#3a414a"/><path d="M758.52 160.47h-.56l.04-.47-.04-.47h.56z" fill="#3a414a"/><path stroke="#3a414a" stroke-width=".05" fill="#3a414a"/><path d="M837.38 160l-14.26 4.63v-9.26z" fill="#3a414a"/><path d="M838.92 160l-16.28 5.3v-10.6zm-15.33 3.98l12.25-3.98-12.26-3.98z" stroke="#3a414a" stroke-width=".05" fill="#3a414a"/><use xlink:href="#j" transform="matrix(1,0,0,1,786.2755989671311,149.24479166666666) translate(0 17.22222222222222)"/><path d="M840 106a6 6 0 0 1 6-6h148a6 6 0 0 1 6 6v108a6 6 0 0 1-6 6H846a6 6 0 0 1-6-6z" stroke="#3a414a" stroke-width="2" fill="#fff"/><use xlink:href="#g" transform="matrix(1,0,0,1,852,112) translate(15.987196180555557 42.52777777777778)"/><use xlink:href="#h" transform="matrix(1,0,0,1,852,112) translate(102.90125868055556 42.52777777777778)"/><use xlink:href="#k" transform="matrix(1,0,0,1,852,112) translate(47.73090277777778 69.41579861111111)"/><path d="M1001.5 160h61.12" stroke="#3a414a" fill="none"/><path d="M1001.5 160.47h-.5v-.94h.5z" stroke="#3a414a" stroke-width=".05" fill="#3a414a"/><path d="M1077.38 160l-14.27 4.63.02-9.26z" stroke="#3a414a" fill="#3a414a"/><path d="M1200 120c22.1 0 40 17.9 40 40s-17.9 40-40 40h-80c-22.1 0-40-17.9-40-40s17.9-40 40-40z" stroke="#3a414a" stroke-width="2" fill="#fff"/><use xlink:href="#l" transform="matrix(1,0,0,1,1092,132) translate(48.154079861111114 35.52777777777778)"/><path d="M761.5 360H1154a6 6 0 0 0 6-6V217.38" stroke="#3a414a" fill="none"/><path d="M761.5 360.48h-.5v-.96h.5z" stroke="#3a414a" stroke-width=".05" fill="#3a414a"/><path d="M1160 202.62l4.63 14.26h-9.27z" stroke="#3a414a" fill="#3a414a"/><path d="M180-14a6 6 0 0 1 6-6h228a6 6 0 0 1 6 6v48a6 6 0 0 1-6 6H186a6 6 0 0 1-6-6z" fill="none"/><use xlink:href="#m" transform="matrix(1,0,0,1,180,-20) translate(13.116319444444429 15.069444444444446)"/><use xlink:href="#n" transform="matrix(1,0,0,1,180,-20) translate(64.54535590277777 15.069444444444446)"/><use xlink:href="#o" transform="matrix(1,0,0,1,180,-20) translate(78.44509548611111 15.069444444444446)"/><use xlink:href="#p" transform="matrix(1,0,0,1,180,-20) translate(91.55490451388889 15.069444444444446)"/><use xlink:href="#q" transform="matrix(1,0,0,1,180,-20) translate(154.92404513888889 15.069444444444446)"/><use xlink:href="#r" transform="matrix(1,0,0,1,180,-20) translate(171.27712673611111 15.069444444444446)"/><use xlink:href="#s" transform="matrix(1,0,0,1,180,-20) translate(211.70030381944446 15.069444444444446)"/><use xlink:href="#t" transform="matrix(1,0,0,1,180,-20) translate(104.52799479166666 33.891059027777786)"/><use xlink:href="#u" transform="matrix(1,0,0,1,180,-20) translate(0.9749348958333286 52.712673611111114)"/><use xlink:href="#v" transform="matrix(1,0,0,1,180,-20) translate(44.026150173611114 52.712673611111114)"/><use xlink:href="#w" transform="matrix(1,0,0,1,180,-20) translate(66.32649739583333 52.712673611111114)"/><use xlink:href="#x" transform="matrix(1,0,0,1,180,-20) translate(139.85080295138886 52.712673611111114)"/><use xlink:href="#y" transform="matrix(1,0,0,1,180,-20) translate(172.3366970486111 52.712673611111114)"/><use xlink:href="#z" transform="matrix(1,0,0,1,180,-20) translate(229.50032552083331 52.712673611111114)"/><use xlink:href="#o" transform="matrix(1,0,0,1,180,-20) translate(18.364800347222214 71.53428819444446)"/><use xlink:href="#A" transform="matrix(1,0,0,1,180,-20) translate(31.474609374999993 71.53428819444446)"/><use xlink:href="#B" transform="matrix(1,0,0,1,180,-20) translate(75.85503472222223 71.53428819444446)"/><use xlink:href="#C" transform="matrix(1,0,0,1,180,-20) translate(136.69487847222223 71.53428819444446)"/><use xlink:href="#q" transform="matrix(1,0,0,1,180,-20) translate(150.26041666666669 71.53428819444446)"/><use xlink:href="#D" transform="matrix(1,0,0,1,180,-20) translate(166.6134982638889 71.53428819444446)"/><use xlink:href="#s" transform="matrix(1,0,0,1,180,-20) translate(206.45182291666669 71.53428819444446)"/><use xlink:href="#E" transform="matrix(1,0,0,1,180,-20) translate(103.57096354166666 90.35590277777779)"/><path d="M200-620c22.1 0 40 17.9 40 40s-17.9 40-40 40h-80c-22.1 0-40-17.9-40-40s17.9-40 40-40z" stroke="#3a414a" stroke-width="2" fill="#fff"/><use xlink:href="#a" transform="matrix(1,0,0,1,85,-615) translate(49.951171875 43.40277777777778)"/><path d="M241.5-580h61.12" stroke="#3a414a" fill="none"/><path d="M241.5-579.52h-.53l.03-.47-.02-.48h.53z" stroke="#3a414a" stroke-width=".05" fill="#3a414a"/><path d="M317.38-580l-14.26 4.63v-9.26z" stroke="#3a414a" fill="#3a414a"/><path d="M320-634a6 6 0 0 1 6-6h148a6 6 0 0 1 6 6v108a6 6 0 0 1-6 6H326a6 6 0 0 1-6-6z" stroke="#3a414a" stroke-width="2" fill="#fff"/><use xlink:href="#F" transform="matrix(1,0,0,1,325,-635) translate(25.30924479166667 49.02777777777778)"/><use xlink:href="#c" transform="matrix(1,0,0,1,325,-635) translate(91.32486979166667 49.02777777777778)"/><use xlink:href="#G" transform="matrix(1,0,0,1,325,-635) translate(24.978298611111114 75.91579861111111)"/><use xlink:href="#H" transform="matrix(1,0,0,1,325,-635) translate(111.89236111111111 75.91579861111111)"/><path d="M481.5-580h61.12" stroke="#3a414a" fill="none"/><path d="M481.5-579.52h-.5v-.96h.5z" stroke="#3a414a" stroke-width=".05" fill="#3a414a"/><path d="M557.38-580l-14.26 4.63v-9.26z" stroke="#3a414a" fill="#3a414a"/><path d="M560-634a6 6 0 0 1 6-6h148a6 6 0 0 1 6 6v108a6 6 0 0 1-6 6H566a6 6 0 0 1-6-6z" stroke="#3a414a" stroke-width="2" fill="#fff"/><use xlink:href="#I" transform="matrix(1,0,0,1,565,-635) translate(12.847222222222229 49.02777777777778)"/><use xlink:href="#c" transform="matrix(1,0,0,1,565,-635) translate(103.78689236111111 49.02777777777778)"/><use xlink:href="#J" transform="matrix(1,0,0,1,565,-635) translate(38.47113715277778 75.91579861111111)"/><path d="M721.5-580h64.1" stroke="#3a414a" fill="none"/><path d="M721.5-579.52h-.5v-.96h.5z" stroke="#3a414a" stroke-width=".05" fill="#3a414a"/><path d="M800.38-580l-14.27 4.63v-9.26z" stroke="#3a414a" fill="#3a414a"/><path d="M875.2-636.4a8 8 0 0 1 9.6 0l70.4 52.8a4.5 4.5 0 0 1 0 7.2l-70.4 52.8a8 8 0 0 1-9.6 0l-70.4-52.8a4.5 4.5 0 0 1 0-7.2z" stroke="#3a414a" stroke-width="2" fill="#fff"/><use xlink:href="#K" transform="matrix(1,0,0,1,805,-635) translate(26.567499999999995 62.77777777777778)"/><use xlink:href="#L" transform="matrix(1,0,0,1,805,-635) translate(90.22852430555557 62.77777777777778)"/><path d="M986.28-579.52H958.5v-.96h27.78zm36.34 0h-11.9v-.96h11.9z" stroke="#3a414a" stroke-width=".05" fill="#3a414a"/><path d="M958.52-579.52h-.56l.04-.48-.04-.48h.56z" fill="#3a414a"/><path stroke="#3a414a" stroke-width=".05" fill="#3a414a"/><path d="M1037.38-580l-14.26 4.63v-9.26z" fill="#3a414a"/><path d="M1038.92-580l-16.28 5.3v-10.6zm-15.33 3.98l12.25-3.98-12.26-3.98z" stroke="#3a414a" stroke-width=".05" fill="#3a414a"/><use xlink:href="#j" transform="matrix(1,0,0,1,986.275598967131,-590.7552083333334) translate(0 17.22222222222222)"/><path d="M1040-634a6 6 0 0 1 6-6h148a6 6 0 0 1 6 6v108a6 6 0 0 1-6 6h-148a6 6 0 0 1-6-6z" stroke="#3a414a" stroke-width="2" fill="#fff"/><use xlink:href="#M" transform="matrix(1,0,0,1,1045,-635) translate(14.078776041666679 35.27777777777778)"/><use xlink:href="#N" transform="matrix(1,0,0,1,1045,-635) translate(60.02061631944445 35.27777777777778)"/><use xlink:href="#O" transform="matrix(1,0,0,1,1045,-635) translate(18.446180555555557 62.165798611111114)"/><use xlink:href="#P" transform="matrix(1,0,0,1,1045,-635) translate(81.03298611111111 62.165798611111114)"/><use xlink:href="#Q" transform="matrix(1,0,0,1,1045,-635) translate(92.66493055555556 62.165798611111114)"/><use xlink:href="#R" transform="matrix(1,0,0,1,1045,-635) translate(52.83203125 89.05381944444446)"/><path d="M1120-641.5v-61.12" stroke="#3a414a" fill="none"/><path d="M1120.47-641h-.94v-.5h.94z" stroke="#3a414a" stroke-width=".05" fill="#3a414a"/><path d="M1120-717.38l4.63 14.26h-9.27z" stroke="#3a414a" fill="#3a414a"/><path d="M1069.18-834.7a10 10 0 0 1 8.82-5.3h106c8.84 0 16 26.86 16 60s-7.16 60-16 60h-106a10 10 0 0 1-8.82-5.3l-26.36-49.4a11.25 11.25 0 0 1 0-10.6z" stroke="#3a414a" stroke-width="2" fill="#fff"/><use xlink:href="#S" transform="matrix(1,0,0,1,1045,-835) translate(28.120885416666667 62.77777777777778)"/><use xlink:href="#T" transform="matrix(1,0,0,1,1045,-835) translate(90.70769097222222 62.77777777777778)"/><use xlink:href="#U" transform="matrix(1,0,0,1,1045,-835) translate(118.50717013888888 62.77777777777778)"/><path d="M1040-780H886a6 6 0 0 0-6 6v118.6" stroke="#3a414a" fill="none"/><path d="M1040.5-780l.02.48h-.53v-.96h.52z" stroke="#3a414a" stroke-width=".05" fill="#3a414a"/><path d="M880-640.62l-4.63-14.27h9.26z" stroke="#3a414a" fill="#3a414a"/><path d="M880.48-457.38h-.96v-12.86h.96zm0-34.37h-.96v-28.75h.96z" stroke="#3a414a" stroke-width=".05" fill="#3a414a"/><path d="M880-521l.48-.03v.54h-.96v-.53z" fill="#3a414a"/><path stroke="#3a414a" stroke-width=".05" fill="#3a414a"/><path d="M880-442.62l-4.63-14.26h9.26z" fill="#3a414a"/><path d="M880-441.08l-5.3-16.28h10.6zm-3.98-15.33l3.98 12.25 3.98-12.26z" stroke="#3a414a" stroke-width=".05" fill="#3a414a"/><use xlink:href="#j" transform="matrix(1,0,0,1,867.7734375,-491.75415648812674) translate(0 17.22222222222222)"/><path d="M800-434a6 6 0 0 1 6-6h148a6 6 0 0 1 6 6v108a6 6 0 0 1-6 6H806a6 6 0 0 1-6-6z" stroke="#3a414a" stroke-width="2" fill="#fff"/><use xlink:href="#V" transform="matrix(1,0,0,1,805,-435) translate(31.141493055555557 49.02777777777778)"/><use xlink:href="#c" transform="matrix(1,0,0,1,805,-435) translate(85.49262152777777 49.02777777777778)"/><use xlink:href="#O" transform="matrix(1,0,0,1,805,-435) translate(7.638888888888886 75.91579861111111)"/><use xlink:href="#T" transform="matrix(1,0,0,1,805,-435) translate(70.22569444444443 75.91579861111111)"/><use xlink:href="#R" transform="matrix(1,0,0,1,805,-435) translate(98.0251736111111 75.91579861111111)"/><path d="M880-318.5v81.12" stroke="#3a414a" fill="none"/><path d="M880.48-318.5h-.96v-.5h.96z" stroke="#3a414a" stroke-width=".05" fill="#3a414a"/><path d="M880-222.62l-4.63-14.26h9.26z" stroke="#3a414a" fill="#3a414a"/><path d="M920-220c22.1 0 40 17.9 40 40s-17.9 40-40 40h-80c-22.1 0-40-17.9-40-40s17.9-40 40-40z" stroke="#3a414a" stroke-width="2" fill="#fff"/><use xlink:href="#W" transform="matrix(1,0,0,1,805,-215) translate(54.95334201388889 43.40277777777778)"/><path d="M-40-914a6 6 0 0 1 6-6h228a6 6 0 0 1 6 6v48a6 6 0 0 1-6 6H-34a6 6 0 0 1-6-6z" fill="none"/><use xlink:href="#X" transform="matrix(1,0,0,1,-40,-920) translate(14.848090277777771 15.069444444444446)"/><use xlink:href="#Y" transform="matrix(1,0,0,1,-40,-920) translate(87.68120659722223 15.069444444444446)"/><use xlink:href="#Z" transform="matrix(1,0,0,1,-40,-920) translate(115.4123263888889 15.069444444444446)"/><use xlink:href="#aa" transform="matrix(1,0,0,1,-40,-920) translate(152.5922309027778 15.069444444444446)"/><use xlink:href="#ab" transform="matrix(1,0,0,1,-40,-920) translate(172.05186631944446 15.069444444444446)"/><use xlink:href="#ac" transform="matrix(1,0,0,1,-40,-920) translate(86.39756944444444 33.891059027777786)"/><use xlink:href="#ad" transform="matrix(1,0,0,1,-40,-920) translate(36.506618923611114 52.712673611111114)"/><use xlink:href="#v" transform="matrix(1,0,0,1,-40,-920) translate(79.5578342013889 52.712673611111114)"/><use xlink:href="#w" transform="matrix(1,0,0,1,-40,-920) translate(101.85818142361111 52.712673611111114)"/><use xlink:href="#ae" transform="matrix(1,0,0,1,-40,-920) translate(175.38248697916666 52.712673611111114)"/><use xlink:href="#af" transform="matrix(1,0,0,1,-40,-920) translate(3.732096354166657 71.53428819444446)"/><use xlink:href="#Y" transform="matrix(1,0,0,1,-40,-920) translate(82.45171440972223 71.53428819444446)"/><use xlink:href="#ag" transform="matrix(1,0,0,1,-40,-920) translate(110.1828342013889 71.53428819444446)"/><use xlink:href="#aa" transform="matrix(1,0,0,1,-40,-920) translate(145.5929904513889 71.53428819444446)"/><use xlink:href="#ah" transform="matrix(1,0,0,1,-40,-920) translate(165.05262586805557 71.53428819444446)"/><use xlink:href="#ai" transform="matrix(1,0,0,1,-40,-920) translate(185.69715711805557 71.53428819444446)"/><use xlink:href="#aj" transform="matrix(1,0,0,1,-40,-920) translate(24.904513888888886 90.35590277777779)"/><use xlink:href="#ak" transform="matrix(1,0,0,1,-40,-920) translate(93.955078125 90.35590277777779)"/><use xlink:href="#al" transform="matrix(1,0,0,1,-40,-920) translate(132.63888888888889 90.35590277777779)"/><use xlink:href="#am" transform="matrix(1,0,0,1,-40,-920) translate(143.34092881944446 90.35590277777779)"/><use xlink:href="#o" transform="matrix(1,0,0,1,-40,-920) translate(161.98025173611111 90.35590277777779)"/><use xlink:href="#an" transform="matrix(1,0,0,1,-40,-920) translate(175.09006076388889 90.35590277777779)"/><use xlink:href="#B" transform="matrix(1,0,0,1,-40,-920) translate(82.744140625 109.17751736111113)"/><use xlink:href="#ao" transform="matrix(1,0,0,1,-40,-920) translate(143.583984375 109.17751736111113)"/><use xlink:href="#ap" transform="matrix(1,0,0,1,-40,-920) translate(120 127.99913194444447)"/><use xlink:href="#aq" transform="matrix(1,0,0,1,-40,-920) translate(120 146.82074652777783)"/><path d="M-40 486a6 6 0 0 1 6-6h228a6 6 0 0 1 6 6v48a6 6 0 0 1-6 6H-34a6 6 0 0 1-6-6z" fill="none"/><g><use xlink:href="#ar" transform="matrix(1,0,0,1,-40,480) translate(18.96104600694443 15.069444444444446)"/><use xlink:href="#Y" transform="matrix(1,0,0,1,-40,480) translate(55.00162760416666 15.069444444444446)"/><use xlink:href="#as" transform="matrix(1,0,0,1,-40,480) translate(82.73274739583333 15.069444444444446)"/><use xlink:href="#aa" transform="matrix(1,0,0,1,-40,480) translate(158.60405815972223 15.069444444444446)"/><use xlink:href="#at" transform="matrix(1,0,0,1,-40,480) translate(178.06369357638889 15.069444444444446)"/><use xlink:href="#ac" transform="matrix(1,0,0,1,-40,480) translate(86.39756944444444 33.891059027777786)"/><use xlink:href="#ad" transform="matrix(1,0,0,1,-40,480) translate(14.635416666666671 52.712673611111114)"/><use xlink:href="#v" transform="matrix(1,0,0,1,-40,480) translate(57.68663194444446 52.712673611111114)"/><use xlink:href="#w" transform="matrix(1,0,0,1,-40,480) translate(79.98697916666667 52.712673611111114)"/><use xlink:href="#x" transform="matrix(1,0,0,1,-40,480) translate(153.51128472222223 52.712673611111114)"/><use xlink:href="#au" transform="matrix(1,0,0,1,-40,480) translate(185.99717881944446 52.712673611111114)"/><use xlink:href="#av" transform="matrix(1,0,0,1,-40,480) translate(19.318033854166657 71.53428819444446)"/><use xlink:href="#aj" transform="matrix(1,0,0,1,-40,480) translate(61.716037326388886 71.53428819444446)"/><use xlink:href="#aw" transform="matrix(1,0,0,1,-40,480) translate(130.7666015625 71.53428819444446)"/><use xlink:href="#ax" transform="matrix(1,0,0,1,-40,480) translate(152.08713107638889 71.53428819444446)"/><use xlink:href="#ay" transform="matrix(1,0,0,1,-40,480) translate(193.23187934027777 71.53428819444446)"/><use xlink:href="#az" transform="matrix(1,0,0,1,-40,480) translate(28.068033854166657 90.35590277777779)"/><use xlink:href="#Y" transform="matrix(1,0,0,1,-40,480) translate(68.89377170138889 90.35590277777779)"/><use xlink:href="#aA" transform="matrix(1,0,0,1,-40,480) translate(96.62489149305556 90.35590277777779)"/><use xlink:href="#aa" transform="matrix(1,0,0,1,-40,480) translate(151.00857204861111 90.35590277777779)"/><use xlink:href="#aB" transform="matrix(1,0,0,1,-40,480) translate(170.46820746527777 90.35590277777779)"/></g><path d="M281.5 160h61.12" stroke="#3a414a" fill="none"/><path d="M281.5 160.47h-.53l.03-.46-.02-.47h.53z" stroke="#3a414a" stroke-width=".05" fill="#3a414a"/><path d="M357.38 160l-14.26 4.63v-9.26z" stroke="#3a414a" fill="#3a414a"/><path d="M80 720c22.1 0 40 17.9 40 40s-17.9 40-40 40H0c-22.1 0-40-17.9-40-40s17.9-40 40-40z" stroke="#3a414a" stroke-width="2" fill="#fff"/><g><use xlink:href="#a" transform="matrix(1,0,0,1,-35,725) translate(49.951171875 43.40277777777778)"/></g><path d="M121.5 760h61.12" stroke="#3a414a" fill="none"/><path d="M121.5 760.48h-.53l.03-.47-.02-.48h.53z" stroke="#3a414a" stroke-width=".05" fill="#3a414a"/><path d="M197.38 760l-14.26 4.63v-9.26z" stroke="#3a414a" fill="#3a414a"/><path d="M200 706a6 6 0 0 1 6-6h148a6 6 0 0 1 6 6v108a6 6 0 0 1-6 6H206a6 6 0 0 1-6-6z" stroke="#3a414a" stroke-width="2" fill="#fff"/><g><use xlink:href="#b" transform="matrix(1,0,0,1,205,705) translate(25.60221354166667 49.02777777777778)"/><use xlink:href="#c" transform="matrix(1,0,0,1,205,705) translate(91.03190104166667 49.02777777777778)"/><use xlink:href="#G" transform="matrix(1,0,0,1,205,705) translate(5.750868055555557 75.91579861111111)"/><use xlink:href="#aC" transform="matrix(1,0,0,1,205,705) translate(92.66493055555556 75.91579861111111)"/></g><path d="M361.5 760h61.12" stroke="#3a414a" fill="none"/><path d="M361.5 760.48h-.5v-.96h.5z" stroke="#3a414a" stroke-width=".05" fill="#3a414a"/><path d="M437.38 760l-14.26 4.63v-9.26z" stroke="#3a414a" fill="#3a414a"/><path d="M440 706a6 6 0 0 1 6-6h148a6 6 0 0 1 6 6v108a6 6 0 0 1-6 6H446a6 6 0 0 1-6-6z" stroke="#3a414a" stroke-width="2" fill="#fff"/><g><use xlink:href="#I" transform="matrix(1,0,0,1,445,705) translate(12.847222222222229 24.96527777777778)"/><use xlink:href="#c" transform="matrix(1,0,0,1,445,705) translate(103.78689236111111 24.96527777777778)"/><use xlink:href="#aD" transform="matrix(1,0,0,1,445,705) translate(8.148871527777786 51.853298611111114)"/><use xlink:href="#aE" transform="matrix(1,0,0,1,445,705) translate(97.77560763888889 51.853298611111114)"/><use xlink:href="#aF" transform="matrix(1,0,0,1,445,705) translate(36.29014756944445 78.74131944444446)"/><use xlink:href="#aG" transform="matrix(1,0,0,1,445,705) translate(81.75455729166666 78.74131944444446)"/><use xlink:href="#aH" transform="matrix(1,0,0,1,445,705) translate(39.74609375 105.62934027777777)"/></g><path d="M601.5 760h64.1" stroke="#3a414a" fill="none"/><path d="M601.5 760.48h-.5v-.96h.5z" stroke="#3a414a" stroke-width=".05" fill="#3a414a"/><path d="M680.38 760l-14.27 4.63v-9.26z" stroke="#3a414a" fill="#3a414a"/><path d="M755.2 703.6a8 8 0 0 1 9.6 0l70.4 52.8a4.5 4.5 0 0 1 0 7.2l-70.4 52.8a8 8 0 0 1-9.6 0l-70.4-52.8a4.5 4.5 0 0 1 0-7.2z" stroke="#3a414a" stroke-width="2" fill="#fff"/><g><use xlink:href="#aI" transform="matrix(1,0,0,1,685,705) translate(25.75912326388889 62.77777777777778)"/><use xlink:href="#aJ" transform="matrix(1,0,0,1,685,705) translate(51.865894097222224 62.77777777777778)"/></g><path d="M952.7 760.48H838.5v-.96h114.2zm129.92 0H984.3v-.96h98.32z" stroke="#3a414a" stroke-width=".05" fill="#3a414a"/><path d="M838.52 760.48h-.56l.04-.48-.04-.48h.56z" fill="#3a414a"/><path stroke="#3a414a" stroke-width=".05" fill="#3a414a"/><path d="M1097.38 760l-14.26 4.63v-9.26z" fill="#3a414a"/><path d="M1098.92 760l-16.28 5.3v-10.6zm-15.33 3.98l12.25-3.98-12.26-3.98z" stroke="#3a414a" stroke-width=".05" fill="#3a414a"/><g><use xlink:href="#f" transform="matrix(1,0,0,1,952.70355035602,749.2447916666666) translate(0 17.22222222222222)"/></g><path d="M1100 706a6 6 0 0 1 6-6h148a6 6 0 0 1 6 6v108a6 6 0 0 1-6 6h-148a6 6 0 0 1-6-6z" stroke="#3a414a" stroke-width="2" fill="#fff"/><g><use xlink:href="#aK" transform="matrix(1,0,0,1,1105,705) translate(32.557508680555564 62.77777777777778)"/><use xlink:href="#aL" transform="matrix(1,0,0,1,1105,705) translate(82.88302951388889 62.77777777777778)"/><use xlink:href="#aM" transform="matrix(1,0,0,1,1105,705) translate(103.83572048611111 62.77777777777778)"/></g><path d="M760.48 884.6h-.96v-13.85h.96zm0-35.36h-.96V819.5h.96z" stroke="#3a414a" stroke-width=".05" fill="#3a414a"/><path d="M760 819l.48-.03v.54h-.96V819z" fill="#3a414a"/><path stroke="#3a414a" stroke-width=".05" fill="#3a414a"/><path d="M760 899.38l-4.63-14.27h9.26z" fill="#3a414a"/><path d="M760 900.92l-5.3-16.28h10.6zm-3.98-15.33l3.98 12.24 3.98-12.25z" stroke="#3a414a" stroke-width=".05" fill="#3a414a"/><g><use xlink:href="#j" transform="matrix(1,0,0,1,747.7734375,849.2447916666666) translate(0 17.22222222222222)"/></g><path d="M755.2 903.6a8 8 0 0 1 9.6 0l70.4 52.8a4.5 4.5 0 0 1 0 7.2l-70.4 52.8a8 8 0 0 1-9.6 0l-70.4-52.8a4.5 4.5 0 0 1 0-7.2z" stroke="#3a414a" stroke-width="2" fill="#fff"/><g><use xlink:href="#aN" transform="matrix(1,0,0,1,685,905) translate(29.339852430555553 62.77777777777778)"/><use xlink:href="#aO" transform="matrix(1,0,0,1,685,905) translate(49.19662326388889 62.77777777777778)"/></g><path d="M862.7 960.48h-24.2v-.96h24.2zm39.92 0h-8.32v-.96h8.32z" stroke="#3a414a" stroke-width=".05" fill="#3a414a"/><path d="M838.52 960.48h-.56l.04-.48-.04-.48h.56z" fill="#3a414a"/><path stroke="#3a414a" stroke-width=".05" fill="#3a414a"/><path d="M917.38 960l-14.26 4.63v-9.26z" fill="#3a414a"/><path d="M918.92 960l-16.28 5.3v-10.6zm-15.33 3.98l12.25-3.98-12.26-3.98z" stroke="#3a414a" stroke-width=".05" fill="#3a414a"/><g><use xlink:href="#f" transform="matrix(1,0,0,1,862.7035503560201,949.2447916666666) translate(0 17.22222222222222)"/></g><path d="M760.48 1253.98l.06.88.2.85.34.8.45.75.56.66.65.57.74.45.8.33.84.2.88.08h.75v.94h-.8l-.98-.07-1-.24-.94-.4-.87-.52-.78-.66-.66-.77-.53-.86-.4-.94-.23-1-.08-.98V1019.5h.96zm262.14 5.55v.94h-231.4v-.94z" stroke="#3a414a" stroke-width=".05" fill="#3a414a"/><path d="M760 1019l.48-.03v.54h-.96v-.53z" fill="#3a414a"/><path stroke="#3a414a" stroke-width=".05" fill="#3a414a"/><path d="M1037.38 1260l-14.26 4.63v-9.27z" fill="#3a414a"/><path d="M1038.92 1260l-16.28 5.3v-10.6zm-15.33 3.98l12.25-3.98-12.26-3.98z" stroke="#3a414a" stroke-width=".05" fill="#3a414a"/><g><use xlink:href="#j" transform="matrix(1,0,0,1,766.7744893452063,1249.2447916666667) translate(0 17.22222222222222)"/></g><path d="M1040 1206a6 6 0 0 1 6-6h148a6 6 0 0 1 6 6v108a6 6 0 0 1-6 6h-148a6 6 0 0 1-6-6z" stroke="#3a414a" stroke-width="2" fill="#fff"/><g><use xlink:href="#V" transform="matrix(1,0,0,1,1045,1205) translate(25.78667534722223 62.77777777777778)"/><use xlink:href="#aP" transform="matrix(1,0,0,1,1045,1205) translate(80.13780381944446 62.77777777777778)"/></g><path d="M920 906a6 6 0 0 1 6-6h148a6 6 0 0 1 6 6v108a6 6 0 0 1-6 6H926a6 6 0 0 1-6-6z" stroke="#3a414a" stroke-width="2" fill="#fff"/><g><use xlink:href="#aK" transform="matrix(1,0,0,1,932,912) translate(26.01323784722223 57.52777777777778)"/><use xlink:href="#aL" transform="matrix(1,0,0,1,932,912) translate(76.33875868055556 57.52777777777778)"/><use xlink:href="#aQ" transform="matrix(1,0,0,1,932,912) translate(97.29144965277777 57.52777777777778)"/></g><path d="M1180 821.5v361.12" stroke="#3a414a" fill="none"/><path d="M1180.47 821.5h-.94v-.5h.94z" stroke="#3a414a" stroke-width=".05" fill="#3a414a"/><path d="M1180 1197.38l-4.63-14.26h9.27z" stroke="#3a414a" fill="#3a414a"/><path d="M1000 1021.5v82.5a6 6 0 0 0 6 6h62.93a6 6 0 0 1 6 6v66.62" stroke="#3a414a" fill="none"/><path d="M1000.48 1021.5h-.96v-.5h.96z" stroke="#3a414a" stroke-width=".05" fill="#3a414a"/><path d="M1074.93 1197.38l-4.63-14.26h9.27z" stroke="#3a414a" fill="#3a414a"/><path d="M1201.5 1260h61.12" stroke="#3a414a" fill="none"/><path d="M1201.5 1260.47h-.5v-.94h.5z" stroke="#3a414a" stroke-width=".05" fill="#3a414a"/><path d="M1277.38 1260l-14.27 4.63.02-9.27z" stroke="#3a414a" fill="#3a414a"/><path d="M1400 1220c22.1 0 40 17.9 40 40s-17.9 40-40 40h-80c-22.1 0-40-17.9-40-40s17.9-40 40-40z" stroke="#3a414a" stroke-width="2" fill="#fff"/><g><use xlink:href="#W" transform="matrix(1,0,0,1,1285,1225) translate(54.95334201388889 43.40277777777778)"/></g><defs><path d="M657 26c-323 0-524-166-541-416h195c15 169 171 246 346 246 202 0 356-106 356-265 5-203-294-238-475-293-239-73-380-191-380-389 0-252 224-419 512-419 294 0 499 171 508 396H992c-17-145-151-228-328-228-193 0-321 102-321 242 0 156 175 211 284 241l149 41c160 44 422 134 422 412 0 244-197 432-541 432" id="aR"/><path d="M598-1118v154H368v674c0 100 37 144 132 144 23 0 62-6 92-12L629-6c-37 13-88 20-134 20-193 0-307-107-307-290v-688H20v-154h168v-266h180v266h230" id="aS"/><path d="M471 26C259 26 90-98 90-318c0-256 228-303 435-329 202-27 287-16 287-108 0-139-79-219-234-219-161 0-248 86-283 164l-173-57c86-203 278-265 451-265 150 0 419 46 419 395V0H815v-152h-12C765-73 660 26 471 26zm31-159c199 0 310-134 310-271v-155c-30 35-226 55-295 64-131 17-246 59-246 186 0 116 97 176 231 176" id="aT"/><path d="M158 0v-1118h174v172h12c41-113 157-188 290-188 26 0 70 2 91 3v181c-11-2-60-10-108-10-161 0-279 109-279 260V0H158" id="aU"/><g id="a"><use transform="matrix(0.010850694444444444,0,0,0.010850694444444444,0,0)" xlink:href="#aR"/><use transform="matrix(0.010850694444444444,0,0,0.010850694444444444,14.2578125,0)" xlink:href="#aS"/><use transform="matrix(0.010850694444444444,0,0,0.010850694444444444,21.63628472222222,0)" xlink:href="#aT"/><use transform="matrix(0.010850694444444444,0,0,0.010850694444444444,34.11458333333333,0)" xlink:href="#aU"/><use transform="matrix(0.010850694444444444,0,0,0.010850694444444444,42.827690972222214,0)" xlink:href="#aS"/></g><path d="M158 0v-1118h180V0H158zm91-1301c-68 0-125-53-125-119s57-119 125-119c69 0 126 53 126 119s-57 119-126 119" id="aV"/><path d="M338-670V0H158v-1118h173l1 207c72-158 192-221 342-221 226 0 378 139 378 422V0H872v-695c0-172-96-275-252-275-161 0-282 109-282 300" id="aW"/><path d="M538 24C308 24 148-78 108-271l171-41c32 123 123 178 257 178 156 0 256-77 256-169 0-77-54-128-164-154l-186-44c-203-48-300-148-300-305 0-192 176-326 414-326 230 0 351 112 402 269l-163 42c-31-80-94-158-238-158-133 0-233 69-233 162 0 83 57 129 188 160l169 40c203 48 298 149 298 302 0 196-179 339-441 339" id="aX"/><path d="M628 24c-324 0-524-230-524-574 0-343 198-582 503-582 237 0 487 146 487 559v75H286c9 234 145 362 343 362 132 0 231-58 273-172l174 48C1024-91 857 24 628 24zM287-650h624c-17-190-120-322-304-322-192 0-309 151-320 322" id="aY"/><g id="b"><use transform="matrix(0.010850694444444444,0,0,0.010850694444444444,0,0)" xlink:href="#aV"/><use transform="matrix(0.010850694444444444,0,0,0.010850694444444444,5.381944444444445,0)" xlink:href="#aW"/><use transform="matrix(0.010850694444444444,0,0,0.010850694444444444,18.51128472222222,0)" xlink:href="#aX"/><use transform="matrix(0.010850694444444444,0,0,0.010850694444444444,30.240885416666664,0)" xlink:href="#aY"/><use transform="matrix(0.010850694444444444,0,0,0.010850694444444444,43.19661458333333,0)" xlink:href="#aU"/><use transform="matrix(0.010850694444444444,0,0,0.010850694444444444,51.90972222222221,0)" xlink:href="#aS"/></g><path d="M338-670V0H158v-1490h180v566c73-149 190-208 336-208 226 0 379 139 379 422V0H872v-695c0-172-96-275-252-275-161 0-282 109-282 300" id="aZ"/><g id="c"><use transform="matrix(0.010850694444444444,0,0,0.010850694444444444,0,0)" xlink:href="#aS"/><use transform="matrix(0.010850694444444444,0,0,0.010850694444444444,7.269965277777778,0)" xlink:href="#aZ"/><use transform="matrix(0.010850694444444444,0,0,0.010850694444444444,20.41015625,0)" xlink:href="#aY"/></g><path d="M537 14c-226 0-379-139-379-422v-710h180v695c0 172 97 275 253 275 160 0 281-109 281-300v-670h181V0H879v-209C806-46 684 14 537 14" id="ba"/><path d="M158 0v-1118h175l1 205c55-151 181-225 313-225 147 0 245 90 285 228 53-141 190-228 352-228 194 0 352 125 352 384V0h-181v-749c0-161-105-225-225-225-151 0-243 103-243 244V0H807v-767c0-124-93-207-219-207-131 0-250 92-250 270V0H158" id="bb"/><path d="M677 24c-213 0-288-135-325-197h-20V0H158v-1490h180v551h14c37-59 106-193 324-193 279 0 474 222 474 576 0 356-194 580-473 580zm-27-161c209 0 317-186 317-421 0-232-105-413-317-413-206 0-314 166-314 413 0 249 111 421 314 421" id="bc"/><g id="d"><use transform="matrix(0.010850694444444444,0,0,0.010850694444444444,0,0)" xlink:href="#aW"/><use transform="matrix(0.010850694444444444,0,0,0.010850694444444444,13.129340277777777,0)" xlink:href="#ba"/><use transform="matrix(0.010850694444444444,0,0,0.010850694444444444,26.26953125,0)" xlink:href="#bb"/><use transform="matrix(0.010850694444444444,0,0,0.010850694444444444,45.73567708333333,0)" xlink:href="#bc"/><use transform="matrix(0.010850694444444444,0,0,0.010850694444444444,59.34244791666666,0)" xlink:href="#aY"/><use transform="matrix(0.010850694444444444,0,0,0.010850694444444444,72.29817708333333,0)" xlink:href="#aU"/></g><path d="M1490 29c-191 0-293-139-293-303v-78c0-164 105-302 293-302 192 0 291 139 291 302v78c0 164-102 303-291 303zM523-831c-191 0-293-139-293-303v-78c0-164 105-302 293-302 192 0 291 139 291 302v78c0 164-102 303-291 303zM404 0l1024-1490h169L573 0H404zm1086-102c130-4 138-119 138-250 0-88-34-172-138-172-129 0-140 119-140 250 0 89 37 172 140 172zM523-962c130-4 138-119 138-250 0-88-34-172-138-172-129 0-140 119-140 250 0 89 37 172 140 172" id="bd"/><path d="M154 0v-137l495-537c165-179 249-281 249-418 0-156-121-253-280-253-170 0-278 110-278 278H158c0-264 200-443 465-443 266 0 455 183 455 416 0 161-73 288-336 568L416-179v12h687V0H154" id="be"/><path d="M226-283v-166h904v166H226zm0-434v-166h904v166H226" id="bf"/><path d="M613 24c-304 0-509-231-509-576 0-350 205-580 509-580 305 0 511 230 511 580 0 345-206 576-511 576zm0-161c226 0 329-195 329-415 0-222-103-419-329-419-223 0-326 196-326 419 0 220 103 415 326 415" id="bg"/><g id="e"><use transform="matrix(0.010850694444444444,0,0,0.010850694444444444,0,0)" xlink:href="#aW"/><use transform="matrix(0.010850694444444444,0,0,0.010850694444444444,13.129340277777777,0)" xlink:href="#bd"/><use transform="matrix(0.010850694444444444,0,0,0.010850694444444444,34.95008680555556,0)" xlink:href="#be"/><use transform="matrix(0.010850694444444444,0,0,0.010850694444444444,48.50260416666667,0)" xlink:href="#bf"/><use transform="matrix(0.010850694444444444,0,0,0.010850694444444444,63.2052951388889,0)" xlink:href="#bf"/><use transform="matrix(0.010850694444444444,0,0,0.010850694444444444,77.90798611111111,0)" xlink:href="#bg"/></g><path fill="#333" d="M601 0v-560L49-1490h357l252 464c38 68 67 130 97 208 96-243 225-446 337-672h356L905-560V0H601" id="bh"/><path fill="#333" d="M633 22C291 22 81-200 81-553c0-345 210-579 537-579 292 0 525 185 525 567v84H378c7 183 109 277 260 277 105 0 184-46 216-132l272 51C1071-99 893 22 633 22zM380-669h474c-15-146-94-237-233-237-143 0-229 99-241 237" id="bi"/><path fill="#333" d="M572 22C302 22 117-98 78-306l279-48c29 105 101 156 224 156 114 0 185-48 185-115 0-118-228-130-337-155-215-49-322-150-322-317 0-215 187-347 470-347 265 0 424 116 466 298l-266 47c-24-76-87-130-196-130-98 0-174 46-174 113 0 56 38 95 144 117l201 40c216 44 320 143 320 302 0 220-207 367-500 367" id="bj"/><g id="f"><use transform="matrix(0.008680555555555556,0,0,0.008680555555555556,0,0)" xlink:href="#bh"/><use transform="matrix(0.008680555555555556,0,0,0.008680555555555556,11.050347222222223,0)" xlink:href="#bi"/><use transform="matrix(0.008680555555555556,0,0,0.008680555555555556,21.640625,0)" xlink:href="#bj"/></g><g id="g"><use transform="matrix(0.010850694444444444,0,0,0.010850694444444444,0,0)" xlink:href="#aW"/><use transform="matrix(0.010850694444444444,0,0,0.010850694444444444,13.129340277777777,0)" xlink:href="#ba"/><use transform="matrix(0.010850694444444444,0,0,0.010850694444444444,26.26953125,0)" xlink:href="#bb"/><use transform="matrix(0.010850694444444444,0,0,0.010850694444444444,45.73567708333333,0)" xlink:href="#bc"/><use transform="matrix(0.010850694444444444,0,0,0.010850694444444444,59.34244791666666,0)" xlink:href="#aY"/><use transform="matrix(0.010850694444444444,0,0,0.010850694444444444,72.29817708333333,0)" xlink:href="#aU"/></g><g id="h"><use transform="matrix(0.010850694444444444,0,0,0.010850694444444444,0,0)" xlink:href="#aV"/><use transform="matrix(0.010850694444444444,0,0,0.010850694444444444,5.381944444444445,0)" xlink:href="#aX"/></g><path d="M180 0v-1490h908v168H370v486h669v168H370v500h727V0H180" id="bk"/><path d="M481 0L54-1118h197c107 314 236 620 325 951 87-331 217-637 324-951h197L670 0H481" id="bl"/><g id="i"><use transform="matrix(0.010850694444444444,0,0,0.010850694444444444,0,0)" xlink:href="#bk"/><use transform="matrix(0.010850694444444444,0,0,0.010850694444444444,13.35720486111111,0)" xlink:href="#bl"/><use transform="matrix(0.010850694444444444,0,0,0.010850694444444444,25.41232638888889,0)" xlink:href="#aY"/><use transform="matrix(0.010850694444444444,0,0,0.010850694444444444,38.36805555555555,0)" xlink:href="#aW"/></g><path fill="#333" d="M135 0v-1490h340l471 754c59 97 122 210 187 365-32-387-14-721-19-1119h312V0h-341C855-382 627-689 427-1113c32 420 16 695 20 1113H135" id="bm"/><path fill="#333" d="M628 22C291 22 81-210 81-554c0-346 210-578 547-578 336 0 547 232 547 578 0 344-211 576-547 576zm0-236c160 0 242-146 242-341 0-197-82-341-242-341S387-753 387-555c0 195 81 341 241 341" id="bn"/><g id="j"><use transform="matrix(0.008680555555555556,0,0,0.008680555555555556,0,0)" xlink:href="#bm"/><use transform="matrix(0.008680555555555556,0,0,0.008680555555555556,13.550347222222223,0)" xlink:href="#bn"/></g><path d="M577 24c-279 0-473-224-473-580 0-354 195-576 474-576 218 0 287 134 324 193h14v-551h180V0H922v-173h-20C865-111 790 24 577 24zm27-161c203 0 314-172 314-421 0-247-108-413-314-413-212 0-317 181-317 413 0 235 108 421 317 421" id="bo"/><g id="k"><use transform="matrix(0.010850694444444444,0,0,0.010850694444444444,0,0)" xlink:href="#bg"/><use transform="matrix(0.010850694444444444,0,0,0.010850694444444444,13.324652777777777,0)" xlink:href="#bo"/><use transform="matrix(0.010850694444444444,0,0,0.010850694444444444,26.931423611111104,0)" xlink:href="#bo"/></g><g id="l"><use transform="matrix(0.010850694444444444,0,0,0.010850694444444444,0,0)" xlink:href="#aY"/><use transform="matrix(0.010850694444444444,0,0,0.010850694444444444,12.955729166666666,0)" xlink:href="#aW"/><use transform="matrix(0.010850694444444444,0,0,0.010850694444444444,26.085069444444443,0)" xlink:href="#bo"/></g><path d="M783 20c-382 0-661-292-661-764 0-473 279-766 661-766 302 0 548 182 601 489h-190c-42-204-217-313-411-313-268 0-476 208-476 590 0 381 209 588 476 588 195 0 369-110 411-313h190c-52 303-296 489-601 489" id="bp"/><path d="M613 24c-304 0-509-231-509-576 0-350 205-580 509-580 216 0 392 114 453 309l-173 49c-33-115-133-197-280-197-223 0-326 196-326 419 0 220 103 415 326 415 150 0 252-85 285-206l172 49C1010-95 832 24 613 24" id="bq"/><path d="M158 0v-1490h180v865h22l478-493h223L593-638 1096 0H865L456-523 338-412V0H158" id="br"/><g id="m"><use transform="matrix(0.007595486111111112,0,0,0.007595486111111112,0,0)" xlink:href="#bp"/><use transform="matrix(0.007595486111111112,0,0,0.007595486111111112,11.362847222222223,0)" xlink:href="#aZ"/><use transform="matrix(0.007595486111111112,0,0,0.007595486111111112,20.56098090277778,0)" xlink:href="#aY"/><use transform="matrix(0.007595486111111112,0,0,0.007595486111111112,29.629991319444446,0)" xlink:href="#bq"/><use transform="matrix(0.007595486111111112,0,0,0.007595486111111112,38.51671006944445,0)" xlink:href="#br"/></g><path d="M678-1118v154H420V0H240v-964H20v-154h220v-149c0-194 155-293 318-293 85 0 141 18 168 30l-50 154c-19-6-47-17-97-17-111 0-159 58-159 166v109h258" id="bs"/><g id="n"><use transform="matrix(0.007595486111111112,0,0,0.007595486111111112,0,0)" xlink:href="#aV"/><use transform="matrix(0.007595486111111112,0,0,0.007595486111111112,3.7673611111111116,0)" xlink:href="#bs"/></g><use transform="matrix(0.007595486111111112,0,0,0.007595486111111112,0,0)" xlink:href="#aT" id="o"/><path d="M180 0v-1490h224l606 953c40 63 108 177 176 312-27-437-7-821-13-1265h190V0h-226C860-448 622-778 356-1262c27 476 11 792 15 1262H180" id="bt"/><g id="p"><use transform="matrix(0.007595486111111112,0,0,0.007595486111111112,0,0)" xlink:href="#bt"/><use transform="matrix(0.007595486111111112,0,0,0.007595486111111112,11.719835069444446,0)" xlink:href="#ba"/><use transform="matrix(0.007595486111111112,0,0,0.007595486111111112,20.917968750000004,0)" xlink:href="#bb"/><use transform="matrix(0.007595486111111112,0,0,0.007595486111111112,34.544270833333336,0)" xlink:href="#bc"/><use transform="matrix(0.007595486111111112,0,0,0.007595486111111112,44.06901041666667,0)" xlink:href="#aY"/><use transform="matrix(0.007595486111111112,0,0,0.007595486111111112,53.13802083333334,0)" xlink:href="#aU"/></g><g id="q"><use transform="matrix(0.007595486111111112,0,0,0.007595486111111112,0,0)" xlink:href="#aV"/><use transform="matrix(0.007595486111111112,0,0,0.007595486111111112,3.7673611111111116,0)" xlink:href="#aX"/></g><g id="r"><use transform="matrix(0.007595486111111112,0,0,0.007595486111111112,0,0)" xlink:href="#bk"/><use transform="matrix(0.007595486111111112,0,0,0.007595486111111112,9.350043402777779,0)" xlink:href="#bl"/><use transform="matrix(0.007595486111111112,0,0,0.007595486111111112,17.78862847222222,0)" xlink:href="#aY"/><use transform="matrix(0.007595486111111112,0,0,0.007595486111111112,26.85763888888889,0)" xlink:href="#aW"/></g><g id="s"><use transform="matrix(0.007595486111111112,0,0,0.007595486111111112,0,0)" xlink:href="#bg"/><use transform="matrix(0.007595486111111112,0,0,0.007595486111111112,9.327256944444445,0)" xlink:href="#aU"/></g><path d="M784 20c-382 0-662-292-662-764 0-473 280-766 662-766s660 293 660 766c0 472-278 764-660 764zm0-176c266 0 475-207 475-588 0-383-209-590-475-590-268 0-477 208-477 590 0 380 209 588 477 588" id="bu"/><g id="t"><use transform="matrix(0.007595486111111112,0,0,0.007595486111111112,0,0)" xlink:href="#bu"/><use transform="matrix(0.007595486111111112,0,0,0.007595486111111112,11.894531250000002,0)" xlink:href="#bo"/><use transform="matrix(0.007595486111111112,0,0,0.007595486111111112,21.419270833333336,0)" xlink:href="#bo"/></g><path d="M458 0L52-1490h194c108 439 233 855 324 1313 92-459 221-873 331-1313h216c110 438 234 854 330 1307 92-455 216-869 323-1307h196L1558 0h-221l-256-944c-26-95-50-200-73-331-22 122-44 223-73 331L680 0H458" id="bv"/><g id="u"><use transform="matrix(0.007595486111111112,0,0,0.007595486111111112,0,0)" xlink:href="#bv"/><use transform="matrix(0.007595486111111112,0,0,0.007595486111111112,14.803602430555557,0)" xlink:href="#aU"/><use transform="matrix(0.007595486111111112,0,0,0.007595486111111112,20.90277777777778,0)" xlink:href="#aV"/><use transform="matrix(0.007595486111111112,0,0,0.007595486111111112,24.67013888888889,0)" xlink:href="#aS"/><use transform="matrix(0.007595486111111112,0,0,0.007595486111111112,29.607204861111114,0)" xlink:href="#aY"/></g><g id="v"><use transform="matrix(0.007595486111111112,0,0,0.007595486111111112,0,0)" xlink:href="#aT"/><use transform="matrix(0.007595486111111112,0,0,0.007595486111111112,8.734809027777779,0)" xlink:href="#aW"/></g><path d="M338-1490V0H158v-1490h180" id="bw"/><path d="M611 442c-248 0-391-105-460-228l146-94c47 65 117 165 314 165 178 0 307-82 307-266v-224h-17C863-141 792-18 576-18c-268 0-472-195-472-546 0-346 197-568 476-568 216 0 288 133 326 193h17v-179h175V29c0 289-215 413-487 413zm-5-620c203 0 314-146 314-390 0-237-108-403-314-403-213 0-319 180-319 403 0 230 109 390 319 390" id="bx"/><g id="w"><use transform="matrix(0.007595486111111112,0,0,0.007595486111111112,0,0)" xlink:href="#aT"/><use transform="matrix(0.007595486111111112,0,0,0.007595486111111112,8.734809027777779,0)" xlink:href="#bw"/><use transform="matrix(0.007595486111111112,0,0,0.007595486111111112,12.50217013888889,0)" xlink:href="#bx"/><use transform="matrix(0.007595486111111112,0,0,0.007595486111111112,22.042100694444446,0)" xlink:href="#bg"/><use transform="matrix(0.007595486111111112,0,0,0.007595486111111112,31.369357638888893,0)" xlink:href="#aU"/><use transform="matrix(0.007595486111111112,0,0,0.007595486111111112,37.468532986111114,0)" xlink:href="#aV"/><use transform="matrix(0.007595486111111112,0,0,0.007595486111111112,41.23589409722223,0)" xlink:href="#aS"/><use transform="matrix(0.007595486111111112,0,0,0.007595486111111112,46.32486979166667,0)" xlink:href="#aZ"/><use transform="matrix(0.007595486111111112,0,0,0.007595486111111112,55.52300347222223,0)" xlink:href="#bb"/></g><g id="x"><use transform="matrix(0.007595486111111112,0,0,0.007595486111111112,0,0)" xlink:href="#aS"/><use transform="matrix(0.007595486111111112,0,0,0.007595486111111112,5.088975694444445,0)" xlink:href="#aZ"/><use transform="matrix(0.007595486111111112,0,0,0.007595486111111112,14.287109375000002,0)" xlink:href="#aT"/><use transform="matrix(0.007595486111111112,0,0,0.007595486111111112,23.02191840277778,0)" xlink:href="#aS"/></g><g id="y"><use transform="matrix(0.007595486111111112,0,0,0.007595486111111112,0,0)" xlink:href="#bq"/><use transform="matrix(0.007595486111111112,0,0,0.007595486111111112,8.886718750000002,0)" xlink:href="#aZ"/><use transform="matrix(0.007595486111111112,0,0,0.007595486111111112,18.084852430555557,0)" xlink:href="#aY"/><use transform="matrix(0.007595486111111112,0,0,0.007595486111111112,27.153862847222225,0)" xlink:href="#bq"/><use transform="matrix(0.007595486111111112,0,0,0.007595486111111112,36.04058159722223,0)" xlink:href="#br"/><use transform="matrix(0.007595486111111112,0,0,0.007595486111111112,44.577907986111114,0)" xlink:href="#aX"/></g><g id="z"><use transform="matrix(0.007595486111111112,0,0,0.007595486111111112,0,0)" xlink:href="#aV"/><use transform="matrix(0.007595486111111112,0,0,0.007595486111111112,3.7673611111111116,0)" xlink:href="#bs"/></g><g id="A"><use transform="matrix(0.007595486111111112,0,0,0.007595486111111112,0,0)" xlink:href="#bx"/><use transform="matrix(0.007595486111111112,0,0,0.007595486111111112,9.539930555555557,0)" xlink:href="#aV"/><use transform="matrix(0.007595486111111112,0,0,0.007595486111111112,13.307291666666668,0)" xlink:href="#bl"/><use transform="matrix(0.007595486111111112,0,0,0.007595486111111112,21.745876736111114,0)" xlink:href="#aY"/><use transform="matrix(0.007595486111111112,0,0,0.007595486111111112,30.814887152777782,0)" xlink:href="#aW"/></g><g id="B"><use transform="matrix(0.007595486111111112,0,0,0.007595486111111112,0,0)" xlink:href="#aW"/><use transform="matrix(0.007595486111111112,0,0,0.007595486111111112,9.190538194444445,0)" xlink:href="#ba"/><use transform="matrix(0.007595486111111112,0,0,0.007595486111111112,18.388671875,0)" xlink:href="#bb"/><use transform="matrix(0.007595486111111112,0,0,0.007595486111111112,32.014973958333336,0)" xlink:href="#bc"/><use transform="matrix(0.007595486111111112,0,0,0.007595486111111112,41.53971354166667,0)" xlink:href="#aY"/><use transform="matrix(0.007595486111111112,0,0,0.007595486111111112,50.60872395833334,0)" xlink:href="#aU"/></g><use transform="matrix(0.007595486111111112,0,0,0.007595486111111112,0,0)" xlink:href="#aW" id="C"/><g id="D"><use transform="matrix(0.007595486111111112,0,0,0.007595486111111112,0,0)" xlink:href="#aY"/><use transform="matrix(0.007595486111111112,0,0,0.007595486111111112,8.765190972222223,0)" xlink:href="#bl"/><use transform="matrix(0.007595486111111112,0,0,0.007595486111111112,17.203776041666668,0)" xlink:href="#aY"/><use transform="matrix(0.007595486111111112,0,0,0.007595486111111112,26.272786458333336,0)" xlink:href="#aW"/></g><path d="M295 13c-75 0-135-60-135-135s60-135 135-135 135 60 135 135S370 13 295 13" id="by"/><g id="E"><use transform="matrix(0.007595486111111112,0,0,0.007595486111111112,0,0)" xlink:href="#bg"/><use transform="matrix(0.007595486111111112,0,0,0.007595486111111112,9.327256944444445,0)" xlink:href="#bo"/><use transform="matrix(0.007595486111111112,0,0,0.007595486111111112,18.85199652777778,0)" xlink:href="#bo"/><use transform="matrix(0.007595486111111112,0,0,0.007595486111111112,28.376736111111114,0)" xlink:href="#by"/></g><path d="M370-1490V0H180v-1490h190" id="bz"/><g id="F"><use transform="matrix(0.010850694444444444,0,0,0.010850694444444444,0,0)" xlink:href="#bz"/><use transform="matrix(0.010850694444444444,0,0,0.010850694444444444,5.967881944444445,0)" xlink:href="#aW"/><use transform="matrix(0.010850694444444444,0,0,0.010850694444444444,19.09722222222222,0)" xlink:href="#aX"/><use transform="matrix(0.010850694444444444,0,0,0.010850694444444444,30.826822916666664,0)" xlink:href="#aY"/><use transform="matrix(0.010850694444444444,0,0,0.010850694444444444,43.78255208333333,0)" xlink:href="#aU"/><use transform="matrix(0.010850694444444444,0,0,0.010850694444444444,52.49565972222221,0)" xlink:href="#aS"/></g><g id="G"><use transform="matrix(0.010850694444444444,0,0,0.010850694444444444,0,0)" xlink:href="#aW"/><use transform="matrix(0.010850694444444444,0,0,0.010850694444444444,13.129340277777777,0)" xlink:href="#ba"/><use transform="matrix(0.010850694444444444,0,0,0.010850694444444444,26.26953125,0)" xlink:href="#bb"/><use transform="matrix(0.010850694444444444,0,0,0.010850694444444444,45.73567708333333,0)" xlink:href="#bc"/><use transform="matrix(0.010850694444444444,0,0,0.010850694444444444,59.34244791666666,0)" xlink:href="#aY"/><use transform="matrix(0.010850694444444444,0,0,0.010850694444444444,72.29817708333333,0)" xlink:href="#aU"/></g><use transform="matrix(0.010850694444444444,0,0,0.010850694444444444,0,0)" xlink:href="#aW" id="H"/><path d="M126 0v-134l627-806v-11H146v-167h839v143L376-178v11h629V0H126" id="bA"/><g id="I"><use transform="matrix(0.010850694444444444,0,0,0.010850694444444444,0,0)" xlink:href="#aV"/><use transform="matrix(0.010850694444444444,0,0,0.010850694444444444,5.381944444444445,0)" xlink:href="#aW"/><use transform="matrix(0.010850694444444444,0,0,0.010850694444444444,18.51128472222222,0)" xlink:href="#aV"/><use transform="matrix(0.010850694444444444,0,0,0.010850694444444444,23.893229166666664,0)" xlink:href="#aS"/><use transform="matrix(0.010850694444444444,0,0,0.010850694444444444,31.163194444444443,0)" xlink:href="#aV"/><use transform="matrix(0.010850694444444444,0,0,0.010850694444444444,36.545138888888886,0)" xlink:href="#aT"/><use transform="matrix(0.010850694444444444,0,0,0.010850694444444444,49.0234375,0)" xlink:href="#bw"/><use transform="matrix(0.010850694444444444,0,0,0.010850694444444444,54.40538194444444,0)" xlink:href="#aV"/><use transform="matrix(0.010850694444444444,0,0,0.010850694444444444,59.787326388888886,0)" xlink:href="#bA"/><use transform="matrix(0.010850694444444444,0,0,0.010850694444444444,71.73394097222221,0)" xlink:href="#aY"/></g><path d="M646 20c-332 0-524-278-524-764 0-483 194-766 524-766s524 283 524 766c0 485-191 764-524 764zm0-166c218 0 341-220 341-598 0-380-123-601-341-601s-341 222-341 601c0 378 123 598 341 598" id="bB"/><g id="J"><use transform="matrix(0.010850694444444444,0,0,0.010850694444444444,0,0)" xlink:href="#aX"/><use transform="matrix(0.010850694444444444,0,0,0.010850694444444444,11.729600694444445,0)" xlink:href="#ba"/><use transform="matrix(0.010850694444444444,0,0,0.010850694444444444,24.869791666666664,0)" xlink:href="#bb"/><use transform="matrix(0.010850694444444444,0,0,0.010850694444444444,44.3359375,0)" xlink:href="#bf"/><use transform="matrix(0.010850694444444444,0,0,0.010850694444444444,59.03862847222222,0)" xlink:href="#bB"/></g><path d="M409 0L70-1118h191c89 329 165 560 243 925 75-353 154-601 240-925h192c85 325 161 564 235 922 77-354 157-598 244-922h191L1267 0h-179c-86-307-176-590-250-913C763-588 675-308 588 0H409" id="bC"/><g id="K"><use transform="matrix(0.010850694444444444,0,0,0.010850694444444444,0,0)" xlink:href="#bC"/><use transform="matrix(0.010850694444444444,0,0,0.010850694444444444,18.18576388888889,0)" xlink:href="#aZ"/><use transform="matrix(0.010850694444444444,0,0,0.010850694444444444,31.32595486111111,0)" xlink:href="#aY"/><use transform="matrix(0.010850694444444444,0,0,0.010850694444444444,44.28168402777778,0)" xlink:href="#aW"/></g><path d="M1181-520L237-44v-194l712-338v-12L237-926v-196l944 476v126" id="bD"/><g id="L"><use transform="matrix(0.010850694444444444,0,0,0.010850694444444444,0,0)" xlink:href="#aV"/><use transform="matrix(0.010850694444444444,0,0,0.010850694444444444,5.381944444444445,0)" xlink:href="#bD"/><use transform="matrix(0.010850694444444444,0,0,0.010850694444444444,20.084635416666664,0)" xlink:href="#aW"/></g><g id="M"><use transform="matrix(0.010850694444444444,0,0,0.010850694444444444,0,0)" xlink:href="#aT"/><use transform="matrix(0.010850694444444444,0,0,0.010850694444444444,12.47829861111111,0)" xlink:href="#bo"/><use transform="matrix(0.010850694444444444,0,0,0.010850694444444444,26.085069444444443,0)" xlink:href="#bo"/></g><g id="N"><use transform="matrix(0.010850694444444444,0,0,0.010850694444444444,0,0)" xlink:href="#bq"/><use transform="matrix(0.010850694444444444,0,0,0.010850694444444444,12.6953125,0)" xlink:href="#ba"/><use transform="matrix(0.010850694444444444,0,0,0.010850694444444444,25.83550347222222,0)" xlink:href="#aU"/><use transform="matrix(0.010850694444444444,0,0,0.010850694444444444,34.54861111111111,0)" xlink:href="#aU"/><use transform="matrix(0.010850694444444444,0,0,0.010850694444444444,42.54557291666666,0)" xlink:href="#aY"/><use transform="matrix(0.010850694444444444,0,0,0.010850694444444444,55.50130208333332,0)" xlink:href="#aW"/><use transform="matrix(0.010850694444444444,0,0,0.010850694444444444,68.6306423611111,0)" xlink:href="#aS"/></g><g id="O"><use transform="matrix(0.010850694444444444,0,0,0.010850694444444444,0,0)" xlink:href="#bl"/><use transform="matrix(0.010850694444444444,0,0,0.010850694444444444,12.38064236111111,0)" xlink:href="#aT"/><use transform="matrix(0.010850694444444444,0,0,0.010850694444444444,24.85894097222222,0)" xlink:href="#bw"/><use transform="matrix(0.010850694444444444,0,0,0.010850694444444444,30.240885416666664,0)" xlink:href="#ba"/><use transform="matrix(0.010850694444444444,0,0,0.010850694444444444,43.381076388888886,0)" xlink:href="#aY"/></g><use transform="matrix(0.010850694444444444,0,0,0.010850694444444444,0,0)" xlink:href="#aV" id="P"/><g id="Q"><use transform="matrix(0.010850694444444444,0,0,0.010850694444444444,0,0)" xlink:href="#aV"/><use transform="matrix(0.010850694444444444,0,0,0.010850694444444444,5.381944444444445,0)" xlink:href="#aW"/><use transform="matrix(0.010850694444444444,0,0,0.010850694444444444,18.51128472222222,0)" xlink:href="#aS"/><use transform="matrix(0.010850694444444444,0,0,0.010850694444444444,25.56423611111111,0)" xlink:href="#bg"/></g><g id="R"><use transform="matrix(0.010850694444444444,0,0,0.010850694444444444,0,0)" xlink:href="#aX"/><use transform="matrix(0.010850694444444444,0,0,0.010850694444444444,11.729600694444445,0)" xlink:href="#ba"/><use transform="matrix(0.010850694444444444,0,0,0.010850694444444444,24.869791666666664,0)" xlink:href="#bb"/></g><g id="S"><use transform="matrix(0.010850694444444444,0,0,0.010850694444444444,0,0)" xlink:href="#bl"/><use transform="matrix(0.010850694444444444,0,0,0.010850694444444444,12.38064236111111,0)" xlink:href="#aT"/><use transform="matrix(0.010850694444444444,0,0,0.010850694444444444,24.85894097222222,0)" xlink:href="#bw"/><use transform="matrix(0.010850694444444444,0,0,0.010850694444444444,30.240885416666664,0)" xlink:href="#ba"/><use transform="matrix(0.010850694444444444,0,0,0.010850694444444444,43.381076388888886,0)" xlink:href="#aY"/></g><g id="T"><use transform="matrix(0.010850694444444444,0,0,0.010850694444444444,0,0)" xlink:href="#bg"/><use transform="matrix(0.010850694444444444,0,0,0.010850694444444444,13.324652777777777,0)" xlink:href="#bs"/></g><use transform="matrix(0.010850694444444444,0,0,0.010850694444444444,0,0)" xlink:href="#aV" id="U"/><path d="M158 418v-1536h174v179h20c37-59 106-193 324-193 279 0 474 222 474 576 0 356-194 580-473 580-213 0-288-135-325-197h-14v591H158zm492-555c209 0 317-186 317-421 0-232-105-413-317-413-206 0-314 166-314 413 0 249 111 421 314 421" id="bE"/><g id="V"><use transform="matrix(0.010850694444444444,0,0,0.010850694444444444,0,0)" xlink:href="#bE"/><use transform="matrix(0.010850694444444444,0,0,0.010850694444444444,13.606770833333332,0)" xlink:href="#aU"/><use transform="matrix(0.010850694444444444,0,0,0.010850694444444444,22.31987847222222,0)" xlink:href="#aV"/><use transform="matrix(0.010850694444444444,0,0,0.010850694444444444,27.701822916666664,0)" xlink:href="#aW"/><use transform="matrix(0.010850694444444444,0,0,0.010850694444444444,40.83116319444444,0)" xlink:href="#aS"/></g><g id="W"><use transform="matrix(0.010850694444444444,0,0,0.010850694444444444,0,0)" xlink:href="#bk"/><use transform="matrix(0.010850694444444444,0,0,0.010850694444444444,13.35720486111111,0)" xlink:href="#aW"/><use transform="matrix(0.010850694444444444,0,0,0.010850694444444444,26.48654513888889,0)" xlink:href="#bo"/></g><g id="X"><use transform="matrix(0.007595486111111112,0,0,0.007595486111111112,0,0)" xlink:href="#bp"/><use transform="matrix(0.007595486111111112,0,0,0.007595486111111112,11.362847222222223,0)" xlink:href="#aT"/><use transform="matrix(0.007595486111111112,0,0,0.007595486111111112,20.09765625,0)" xlink:href="#bw"/><use transform="matrix(0.007595486111111112,0,0,0.007595486111111112,23.86501736111111,0)" xlink:href="#bq"/><use transform="matrix(0.007595486111111112,0,0,0.007595486111111112,32.751736111111114,0)" xlink:href="#ba"/><use transform="matrix(0.007595486111111112,0,0,0.007595486111111112,41.94986979166667,0)" xlink:href="#bw"/><use transform="matrix(0.007595486111111112,0,0,0.007595486111111112,45.717230902777786,0)" xlink:href="#aT"/><use transform="matrix(0.007595486111111112,0,0,0.007595486111111112,54.452039930555564,0)" xlink:href="#aS"/><use transform="matrix(0.007595486111111112,0,0,0.007595486111111112,59.389105902777786,0)" xlink:href="#aY"/></g><g id="Y"><use transform="matrix(0.007595486111111112,0,0,0.007595486111111112,0,0)" xlink:href="#aS"/><use transform="matrix(0.007595486111111112,0,0,0.007595486111111112,5.088975694444445,0)" xlink:href="#aZ"/><use transform="matrix(0.007595486111111112,0,0,0.007595486111111112,14.287109375000002,0)" xlink:href="#aY"/></g><g id="Z"><use transform="matrix(0.007595486111111112,0,0,0.007595486111111112,0,0)" xlink:href="#aR"/><use transform="matrix(0.007595486111111112,0,0,0.007595486111111112,9.980468750000002,0)" xlink:href="#ba"/><use transform="matrix(0.007595486111111112,0,0,0.007595486111111112,19.178602430555557,0)" xlink:href="#bb"/></g><g id="aa"><use transform="matrix(0.007595486111111112,0,0,0.007595486111111112,0,0)" xlink:href="#bg"/><use transform="matrix(0.007595486111111112,0,0,0.007595486111111112,9.327256944444445,0)" xlink:href="#bs"/></g><g id="ab"><use transform="matrix(0.007595486111111112,0,0,0.007595486111111112,0,0)" xlink:href="#bt"/><use transform="matrix(0.007595486111111112,0,0,0.007595486111111112,11.719835069444446,0)" xlink:href="#aT"/><use transform="matrix(0.007595486111111112,0,0,0.007595486111111112,20.454644097222225,0)" xlink:href="#aS"/><use transform="matrix(0.007595486111111112,0,0,0.007595486111111112,25.54361979166667,0)" xlink:href="#ba"/><use transform="matrix(0.007595486111111112,0,0,0.007595486111111112,34.74175347222223,0)" xlink:href="#aU"/><use transform="matrix(0.007595486111111112,0,0,0.007595486111111112,40.59787326388889,0)" xlink:href="#aT"/><use transform="matrix(0.007595486111111112,0,0,0.007595486111111112,49.33268229166667,0)" xlink:href="#bw"/></g><g id="ac"><use transform="matrix(0.007595486111111112,0,0,0.007595486111111112,0,0)" xlink:href="#bt"/><use transform="matrix(0.007595486111111112,0,0,0.007595486111111112,11.719835069444446,0)" xlink:href="#ba"/><use transform="matrix(0.007595486111111112,0,0,0.007595486111111112,20.917968750000004,0)" xlink:href="#bb"/><use transform="matrix(0.007595486111111112,0,0,0.007595486111111112,34.544270833333336,0)" xlink:href="#bc"/><use transform="matrix(0.007595486111111112,0,0,0.007595486111111112,44.06901041666667,0)" xlink:href="#aY"/><use transform="matrix(0.007595486111111112,0,0,0.007595486111111112,53.13802083333334,0)" xlink:href="#aU"/><use transform="matrix(0.007595486111111112,0,0,0.007595486111111112,58.99414062500001,0)" xlink:href="#aX"/></g><g id="ad"><use transform="matrix(0.007595486111111112,0,0,0.007595486111111112,0,0)" xlink:href="#bv"/><use transform="matrix(0.007595486111111112,0,0,0.007595486111111112,14.803602430555557,0)" xlink:href="#aU"/><use transform="matrix(0.007595486111111112,0,0,0.007595486111111112,20.90277777777778,0)" xlink:href="#aV"/><use transform="matrix(0.007595486111111112,0,0,0.007595486111111112,24.67013888888889,0)" xlink:href="#aS"/><use transform="matrix(0.007595486111111112,0,0,0.007595486111111112,29.607204861111114,0)" xlink:href="#aY"/></g><g id="ae"><use transform="matrix(0.007595486111111112,0,0,0.007595486111111112,0,0)" xlink:href="#aS"/><use transform="matrix(0.007595486111111112,0,0,0.007595486111111112,5.088975694444445,0)" xlink:href="#aZ"/><use transform="matrix(0.007595486111111112,0,0,0.007595486111111112,14.287109375000002,0)" xlink:href="#aT"/><use transform="matrix(0.007595486111111112,0,0,0.007595486111111112,23.02191840277778,0)" xlink:href="#aS"/></g><g id="af"><use transform="matrix(0.007595486111111112,0,0,0.007595486111111112,0,0)" xlink:href="#bq"/><use transform="matrix(0.007595486111111112,0,0,0.007595486111111112,9.038628472222223,0)" xlink:href="#aT"/><use transform="matrix(0.007595486111111112,0,0,0.007595486111111112,17.7734375,0)" xlink:href="#bw"/><use transform="matrix(0.007595486111111112,0,0,0.007595486111111112,21.54079861111111,0)" xlink:href="#bq"/><use transform="matrix(0.007595486111111112,0,0,0.007595486111111112,30.427517361111114,0)" xlink:href="#ba"/><use transform="matrix(0.007595486111111112,0,0,0.007595486111111112,39.62565104166667,0)" xlink:href="#bw"/><use transform="matrix(0.007595486111111112,0,0,0.007595486111111112,43.393012152777786,0)" xlink:href="#aT"/><use transform="matrix(0.007595486111111112,0,0,0.007595486111111112,52.127821180555564,0)" xlink:href="#aS"/><use transform="matrix(0.007595486111111112,0,0,0.007595486111111112,57.064887152777786,0)" xlink:href="#aY"/><use transform="matrix(0.007595486111111112,0,0,0.007595486111111112,66.13389756944446,0)" xlink:href="#aX"/></g><g id="ag"><use transform="matrix(0.007595486111111112,0,0,0.007595486111111112,0,0)" xlink:href="#aX"/><use transform="matrix(0.007595486111111112,0,0,0.007595486111111112,8.210720486111112,0)" xlink:href="#ba"/><use transform="matrix(0.007595486111111112,0,0,0.007595486111111112,17.40885416666667,0)" xlink:href="#bb"/></g><g id="ah"><use transform="matrix(0.007595486111111112,0,0,0.007595486111111112,0,0)" xlink:href="#aT"/><use transform="matrix(0.007595486111111112,0,0,0.007595486111111112,8.734809027777779,0)" xlink:href="#bw"/><use transform="matrix(0.007595486111111112,0,0,0.007595486111111112,12.50217013888889,0)" xlink:href="#bw"/></g><g id="ai"><use transform="matrix(0.007595486111111112,0,0,0.007595486111111112,0,0)" xlink:href="#aW"/><use transform="matrix(0.007595486111111112,0,0,0.007595486111111112,9.190538194444445,0)" xlink:href="#aT"/><use transform="matrix(0.007595486111111112,0,0,0.007595486111111112,17.92534722222222,0)" xlink:href="#aS"/><use transform="matrix(0.007595486111111112,0,0,0.007595486111111112,23.014322916666664,0)" xlink:href="#ba"/><use transform="matrix(0.007595486111111112,0,0,0.007595486111111112,32.21245659722222,0)" xlink:href="#aU"/><use transform="matrix(0.007595486111111112,0,0,0.007595486111111112,38.068576388888886,0)" xlink:href="#aT"/><use transform="matrix(0.007595486111111112,0,0,0.007595486111111112,46.803385416666664,0)" xlink:href="#bw"/></g><g id="aj"><use transform="matrix(0.007595486111111112,0,0,0.007595486111111112,0,0)" xlink:href="#aW"/><use transform="matrix(0.007595486111111112,0,0,0.007595486111111112,9.190538194444445,0)" xlink:href="#ba"/><use transform="matrix(0.007595486111111112,0,0,0.007595486111111112,18.388671875,0)" xlink:href="#bb"/><use transform="matrix(0.007595486111111112,0,0,0.007595486111111112,32.014973958333336,0)" xlink:href="#bc"/><use transform="matrix(0.007595486111111112,0,0,0.007595486111111112,41.53971354166667,0)" xlink:href="#aY"/><use transform="matrix(0.007595486111111112,0,0,0.007595486111111112,50.60872395833334,0)" xlink:href="#aU"/><use transform="matrix(0.007595486111111112,0,0,0.007595486111111112,56.46484375000001,0)" xlink:href="#aX"/></g><g id="ak"><use transform="matrix(0.007595486111111112,0,0,0.007595486111111112,0,0)" xlink:href="#bs"/><use transform="matrix(0.007595486111111112,0,0,0.007595486111111112,5.757378472222223,0)" xlink:href="#aU"/><use transform="matrix(0.007595486111111112,0,0,0.007595486111111112,11.355251736111112,0)" xlink:href="#bg"/><use transform="matrix(0.007595486111111112,0,0,0.007595486111111112,20.682508680555557,0)" xlink:href="#bb"/></g><path d="M653-1490V0H466v-1314h-10L96-1047v-204l324-239h233" id="bF"/><use transform="matrix(0.007595486111111112,0,0,0.007595486111111112,0,0)" xlink:href="#bF" id="al"/><g id="am"><use transform="matrix(0.007595486111111112,0,0,0.007595486111111112,0,0)" xlink:href="#aS"/><use transform="matrix(0.007595486111111112,0,0,0.007595486111111112,4.937065972222222,0)" xlink:href="#bg"/></g><g id="an"><use transform="matrix(0.007595486111111112,0,0,0.007595486111111112,0,0)" xlink:href="#bx"/><use transform="matrix(0.007595486111111112,0,0,0.007595486111111112,9.539930555555557,0)" xlink:href="#aV"/><use transform="matrix(0.007595486111111112,0,0,0.007595486111111112,13.307291666666668,0)" xlink:href="#bl"/><use transform="matrix(0.007595486111111112,0,0,0.007595486111111112,21.745876736111114,0)" xlink:href="#aY"/><use transform="matrix(0.007595486111111112,0,0,0.007595486111111112,30.814887152777782,0)" xlink:href="#aW"/></g><g id="ao"><use transform="matrix(0.007595486111111112,0,0,0.007595486111111112,0,0)" xlink:href="#aW"/><use transform="matrix(0.007595486111111112,0,0,0.007595486111111112,9.190538194444445,0)" xlink:href="#by"/></g><path d="M180 0v-1490h901v168H370v510h643v168H370V0H180" id="bG"/><g id="ar"><use transform="matrix(0.007595486111111112,0,0,0.007595486111111112,0,0)" xlink:href="#bG"/><use transform="matrix(0.007595486111111112,0,0,0.007595486111111112,9.182942708333334,0)" xlink:href="#aV"/><use transform="matrix(0.007595486111111112,0,0,0.007595486111111112,12.950303819444446,0)" xlink:href="#aW"/><use transform="matrix(0.007595486111111112,0,0,0.007595486111111112,22.140842013888893,0)" xlink:href="#bo"/></g><path d="M180 0v-1490h270l367 940c28 72 75 218 110 339 35-117 81-264 110-339l362-940h271V0h-187c2-448-5-837 7-1287-157 497-311 829-483 1287H842C666-458 514-784 354-1284c12 438 5 843 7 1284H180" id="bH"/><path d="M65 0l393-574-370-544h210c88 136 192 297 267 435 67-142 176-302 264-435h206L661-564 1053 0H844c-94-144-206-310-287-458C484-308 366-142 273 0H65" id="bI"/><g id="as"><use transform="matrix(0.007595486111111112,0,0,0.007595486111111112,0,0)" xlink:href="#bH"/><use transform="matrix(0.007595486111111112,0,0,0.007595486111111112,14.051649305555557,0)" xlink:href="#aT"/><use transform="matrix(0.007595486111111112,0,0,0.007595486111111112,22.786458333333336,0)" xlink:href="#bI"/><use transform="matrix(0.007595486111111112,0,0,0.007595486111111112,31.278211805555557,0)" xlink:href="#aV"/><use transform="matrix(0.007595486111111112,0,0,0.007595486111111112,35.04557291666667,0)" xlink:href="#bb"/><use transform="matrix(0.007595486111111112,0,0,0.007595486111111112,48.67187500000001,0)" xlink:href="#ba"/><use transform="matrix(0.007595486111111112,0,0,0.007595486111111112,57.870008680555564,0)" xlink:href="#bb"/></g><path d="M98-1322v-168h1126v168H757V0H567v-1322H98" id="bJ"/><g id="at"><use transform="matrix(0.007595486111111112,0,0,0.007595486111111112,0,0)" xlink:href="#bJ"/><use transform="matrix(0.007595486111111112,0,0,0.007595486111111112,10.04123263888889,0)" xlink:href="#aZ"/><use transform="matrix(0.007595486111111112,0,0,0.007595486111111112,19.239366319444446,0)" xlink:href="#aU"/><use transform="matrix(0.007595486111111112,0,0,0.007595486111111112,24.837239583333336,0)" xlink:href="#aY"/><use transform="matrix(0.007595486111111112,0,0,0.007595486111111112,33.90625,0)" xlink:href="#aY"/></g><g id="au"><use transform="matrix(0.007595486111111112,0,0,0.007595486111111112,0,0)" xlink:href="#aS"/><use transform="matrix(0.007595486111111112,0,0,0.007595486111111112,5.164930555555555,0)" xlink:href="#aT"/><use transform="matrix(0.007595486111111112,0,0,0.007595486111111112,13.899739583333334,0)" xlink:href="#br"/><use transform="matrix(0.007595486111111112,0,0,0.007595486111111112,22.087673611111114,0)" xlink:href="#aY"/><use transform="matrix(0.007595486111111112,0,0,0.007595486111111112,31.156684027777782,0)" xlink:href="#aX"/></g><g id="av"><use transform="matrix(0.007595486111111112,0,0,0.007595486111111112,0,0)" xlink:href="#aS"/><use transform="matrix(0.007595486111111112,0,0,0.007595486111111112,5.088975694444445,0)" xlink:href="#aZ"/><use transform="matrix(0.007595486111111112,0,0,0.007595486111111112,14.287109375000002,0)" xlink:href="#aU"/><use transform="matrix(0.007595486111111112,0,0,0.007595486111111112,19.88498263888889,0)" xlink:href="#aY"/><use transform="matrix(0.007595486111111112,0,0,0.007595486111111112,28.953993055555557,0)" xlink:href="#aY"/></g><g id="aw"><use transform="matrix(0.007595486111111112,0,0,0.007595486111111112,0,0)" xlink:href="#aT"/><use transform="matrix(0.007595486111111112,0,0,0.007595486111111112,8.734809027777779,0)" xlink:href="#aX"/></g><g id="ax"><use transform="matrix(0.007595486111111112,0,0,0.007595486111111112,0,0)" xlink:href="#aV"/><use transform="matrix(0.007595486111111112,0,0,0.007595486111111112,3.7673611111111116,0)" xlink:href="#aW"/><use transform="matrix(0.007595486111111112,0,0,0.007595486111111112,12.957899305555557,0)" xlink:href="#bE"/><use transform="matrix(0.007595486111111112,0,0,0.007595486111111112,22.482638888888893,0)" xlink:href="#ba"/><use transform="matrix(0.007595486111111112,0,0,0.007595486111111112,31.680772569444446,0)" xlink:href="#aS"/></g><g id="ay"><use transform="matrix(0.007595486111111112,0,0,0.007595486111111112,0,0)" xlink:href="#aT"/><use transform="matrix(0.007595486111111112,0,0,0.007595486111111112,8.734809027777779,0)" xlink:href="#aW"/><use transform="matrix(0.007595486111111112,0,0,0.007595486111111112,17.92534722222222,0)" xlink:href="#bo"/></g><g id="az"><use transform="matrix(0.007595486111111112,0,0,0.007595486111111112,0,0)" xlink:href="#bs"/><use transform="matrix(0.007595486111111112,0,0,0.007595486111111112,5.757378472222223,0)" xlink:href="#aV"/><use transform="matrix(0.007595486111111112,0,0,0.007595486111111112,9.524739583333336,0)" xlink:href="#aW"/><use transform="matrix(0.007595486111111112,0,0,0.007595486111111112,18.71527777777778,0)" xlink:href="#bo"/><use transform="matrix(0.007595486111111112,0,0,0.007595486111111112,28.240017361111114,0)" xlink:href="#aX"/></g><g id="aA"><use transform="matrix(0.007595486111111112,0,0,0.007595486111111112,0,0)" xlink:href="#bw"/><use transform="matrix(0.007595486111111112,0,0,0.007595486111111112,3.7673611111111116,0)" xlink:href="#aT"/><use transform="matrix(0.007595486111111112,0,0,0.007595486111111112,12.50217013888889,0)" xlink:href="#aU"/><use transform="matrix(0.007595486111111112,0,0,0.007595486111111112,18.10004340277778,0)" xlink:href="#bx"/><use transform="matrix(0.007595486111111112,0,0,0.007595486111111112,27.639973958333336,0)" xlink:href="#aY"/><use transform="matrix(0.007595486111111112,0,0,0.007595486111111112,36.708984375,0)" xlink:href="#aX"/><use transform="matrix(0.007595486111111112,0,0,0.007595486111111112,44.919704861111114,0)" xlink:href="#aS"/></g><g id="aB"><use transform="matrix(0.007595486111111112,0,0,0.007595486111111112,0,0)" xlink:href="#aS"/><use transform="matrix(0.007595486111111112,0,0,0.007595486111111112,5.088975694444445,0)" xlink:href="#aZ"/><use transform="matrix(0.007595486111111112,0,0,0.007595486111111112,14.287109375000002,0)" xlink:href="#aY"/><use transform="matrix(0.007595486111111112,0,0,0.007595486111111112,23.35611979166667,0)" xlink:href="#bb"/><use transform="matrix(0.007595486111111112,0,0,0.007595486111111112,36.98242187500001,0)" xlink:href="#by"/></g><path d="M128 359l88-567h206L266 359H128" id="bK"/><g id="aC"><use transform="matrix(0.010850694444444444,0,0,0.010850694444444444,0,0)" xlink:href="#aT"/><use transform="matrix(0.010850694444444444,0,0,0.010850694444444444,12.47829861111111,0)" xlink:href="#bK"/><use transform="matrix(0.010850694444444444,0,0,0.010850694444444444,18.880208333333332,0)" xlink:href="#bc"/><use transform="matrix(0.010850694444444444,0,0,0.010850694444444444,32.486979166666664,0)" xlink:href="#bK"/><use transform="matrix(0.010850694444444444,0,0,0.010850694444444444,38.888888888888886,0)" xlink:href="#bq"/></g><g id="aD"><use transform="matrix(0.010850694444444444,0,0,0.010850694444444444,0,0)" xlink:href="#bl"/><use transform="matrix(0.010850694444444444,0,0,0.010850694444444444,12.38064236111111,0)" xlink:href="#aT"/><use transform="matrix(0.010850694444444444,0,0,0.010850694444444444,24.85894097222222,0)" xlink:href="#aU"/><use transform="matrix(0.010850694444444444,0,0,0.010850694444444444,33.57204861111111,0)" xlink:href="#aV"/><use transform="matrix(0.010850694444444444,0,0,0.010850694444444444,38.95399305555555,0)" xlink:href="#aT"/><use transform="matrix(0.010850694444444444,0,0,0.010850694444444444,51.43229166666666,0)" xlink:href="#bc"/><use transform="matrix(0.010850694444444444,0,0,0.010850694444444444,65.03906249999999,0)" xlink:href="#bw"/><use transform="matrix(0.010850694444444444,0,0,0.010850694444444444,70.42100694444443,0)" xlink:href="#aY"/></g><g id="aE"><use transform="matrix(0.010850694444444444,0,0,0.010850694444444444,0,0)" xlink:href="#bb"/><use transform="matrix(0.010850694444444444,0,0,0.010850694444444444,19.466145833333332,0)" xlink:href="#aT"/><use transform="matrix(0.010850694444444444,0,0,0.010850694444444444,31.944444444444443,0)" xlink:href="#bI"/></g><g id="aF"><use transform="matrix(0.010850694444444444,0,0,0.010850694444444444,0,0)" xlink:href="#aT"/><use transform="matrix(0.010850694444444444,0,0,0.010850694444444444,12.47829861111111,0)" xlink:href="#aW"/><use transform="matrix(0.010850694444444444,0,0,0.010850694444444444,25.60763888888889,0)" xlink:href="#bo"/></g><g id="aG"><use transform="matrix(0.010850694444444444,0,0,0.010850694444444444,0,0)" xlink:href="#aX"/><use transform="matrix(0.010850694444444444,0,0,0.010850694444444444,11.729600694444445,0)" xlink:href="#aY"/><use transform="matrix(0.010850694444444444,0,0,0.010850694444444444,24.68532986111111,0)" xlink:href="#aS"/></g><g id="aH"><use transform="matrix(0.010850694444444444,0,0,0.010850694444444444,0,0)" xlink:href="#bb"/><use transform="matrix(0.010850694444444444,0,0,0.010850694444444444,19.466145833333332,0)" xlink:href="#aT"/><use transform="matrix(0.010850694444444444,0,0,0.010850694444444444,31.944444444444443,0)" xlink:href="#bI"/><use transform="matrix(0.010850694444444444,0,0,0.010850694444444444,43.326822916666664,0)" xlink:href="#bf"/><use transform="matrix(0.010850694444444444,0,0,0.010850694444444444,58.029513888888886,0)" xlink:href="#aT"/></g><g id="aI"><use transform="matrix(0.010850694444444444,0,0,0.010850694444444444,0,0)" xlink:href="#aV"/><use transform="matrix(0.010850694444444444,0,0,0.010850694444444444,5.381944444444445,0)" xlink:href="#bs"/></g><g id="aJ"><use transform="matrix(0.010850694444444444,0,0,0.010850694444444444,0,0)" xlink:href="#bc"/><use transform="matrix(0.010850694444444444,0,0,0.010850694444444444,13.606770833333332,0)" xlink:href="#bD"/><use transform="matrix(0.010850694444444444,0,0,0.010850694444444444,28.309461805555554,0)" xlink:href="#bb"/><use transform="matrix(0.010850694444444444,0,0,0.010850694444444444,47.775607638888886,0)" xlink:href="#aT"/><use transform="matrix(0.010850694444444444,0,0,0.010850694444444444,60.25390625,0)" xlink:href="#bI"/></g><g id="aK"><use transform="matrix(0.010850694444444444,0,0,0.010850694444444444,0,0)" xlink:href="#bb"/><use transform="matrix(0.010850694444444444,0,0,0.010850694444444444,19.466145833333332,0)" xlink:href="#aT"/><use transform="matrix(0.010850694444444444,0,0,0.010850694444444444,31.944444444444443,0)" xlink:href="#bI"/></g><use transform="matrix(0.010850694444444444,0,0,0.010850694444444444,0,0)" xlink:href="#bf" id="aL"/><use transform="matrix(0.010850694444444444,0,0,0.010850694444444444,0,0)" xlink:href="#bc" id="aM"/><g id="aN"><use transform="matrix(0.010850694444444444,0,0,0.010850694444444444,0,0)" xlink:href="#aV"/><use transform="matrix(0.010850694444444444,0,0,0.010850694444444444,5.381944444444445,0)" xlink:href="#bs"/></g><g id="aO"><use transform="matrix(0.010850694444444444,0,0,0.010850694444444444,0,0)" xlink:href="#bq"/><use transform="matrix(0.010850694444444444,0,0,0.010850694444444444,12.6953125,0)" xlink:href="#bD"/><use transform="matrix(0.010850694444444444,0,0,0.010850694444444444,27.39800347222222,0)" xlink:href="#bb"/><use transform="matrix(0.010850694444444444,0,0,0.010850694444444444,46.86414930555556,0)" xlink:href="#aT"/><use transform="matrix(0.010850694444444444,0,0,0.010850694444444444,59.34244791666667,0)" xlink:href="#bI"/></g><g id="aP"><use transform="matrix(0.010850694444444444,0,0,0.010850694444444444,0,0)" xlink:href="#bb"/><use transform="matrix(0.010850694444444444,0,0,0.010850694444444444,19.466145833333332,0)" xlink:href="#aT"/><use transform="matrix(0.010850694444444444,0,0,0.010850694444444444,31.944444444444443,0)" xlink:href="#bI"/></g><use transform="matrix(0.010850694444444444,0,0,0.010850694444444444,0,0)" xlink:href="#bq" id="aQ"/></defs></g></svg>